<?xml version="1.0" encoding="UTF-8" standalone="no"?>
<svg
   width="327.73999"
   height="78.025002"
   viewBox="0 0 327.74 78.025003"
   version="1.1"
   id="svg833"
   sodipodi:docname="logo.svg"
   inkscape:version="1.3 (0e150ed, 2023-07-21)"
   inkscape:export-filename="Rastergrafik.svg"
   inkscape:export-xdpi="225.11269"
   inkscape:export-ydpi="225.11269"
   xmlns:inkscape="http://www.inkscape.org/namespaces/inkscape"
   xmlns:sodipodi="http://sodipodi.sourceforge.net/DTD/sodipodi-0.dtd"
   xmlns:xlink="http://www.w3.org/1999/xlink"
   xmlns="http://www.w3.org/2000/svg"
   xmlns:svg="http://www.w3.org/2000/svg">
  <defs
     id="defs837">
    <linearGradient
       id="linearGradient1"
       inkscape:collect="always">
      <stop
         style="stop-color:#ffffff;stop-opacity:1;"
         offset="0"
         id="stop1" />
      <stop
         style="stop-color:#ffffff;stop-opacity:0;"
         offset="1"
         id="stop2" />
    </linearGradient>
    <radialGradient
       inkscape:collect="always"
       xlink:href="#linearGradient1"
       id="radialGradient2"
       cx="226.89911"
       cy="104.59897"
       fx="226.89911"
       fy="104.59897"
       r="13.526367"
       gradientTransform="matrix(1,0,0,0.25536062,0,77.888511)"
       gradientUnits="userSpaceOnUse" />
  </defs>
  <sodipodi:namedview
     id="namedview835"
     pagecolor="#ffffff"
     bordercolor="#666666"
     borderopacity="1.0"
     inkscape:pageshadow="2"
     inkscape:pageopacity="0.0"
     inkscape:pagecheckerboard="0"
     showgrid="false"
     inkscape:zoom="1.3533206"
     inkscape:cx="197.2925"
     inkscape:cy="66.872551"
     inkscape:window-width="1280"
     inkscape:window-height="674"
     inkscape:window-x="0"
     inkscape:window-y="25"
     inkscape:window-maximized="0"
     inkscape:current-layer="svg833"
     inkscape:showpageshadow="2"
     inkscape:deskcolor="#d1d1d1" />
  <rect
     style="display:none;fill:#fdfdfd;fill-opacity:1;stroke:#ffffff;stroke-width:11.2616;stroke-linejoin:miter;stroke-miterlimit:4;stroke-dasharray:none;stroke-opacity:1"
     id="rect969"
     width="316.47839"
     height="66.76342"
     x="5.6308064"
     y="5.6308064"
     inkscape:label="Canvas" />
  <g
     id="svgGroup"
     stroke-linecap="round"
     fill-rule="evenodd"
     font-size="12px"
     stroke="#000"
     stroke-width="0.25mm"
     fill="#000"
     style="fill:#000000;stroke:#000000;stroke-width:0.25mm"
     transform="matrix(1.2946558,0,0,1.2946558,-48.582907,2.7064159)"
     inkscape:label="Logo">
    <path
       d="M 68.404982,10.903599 H 51.332731 v 4.296691 h 16.18436 v 5.266911 h -16.18436 v 9.869683 H 44.608776 V 5.636688 h 23.796206 z"
       id="0"
       style="fill:#000000;stroke-width:1.00157;stroke-miterlimit:4;stroke-dasharray:none" />
    <path
       d="m 80.874027,5.636688 v 14.129557 q 0,1.086445 0.142645,1.892796 a 5.8986527,5.8509202 0 0 0 0.147012,0.633098 3.8375812,3.8065271 0 0 0 0.336962,0.804908 2.9358624,2.9121051 0 0 0 0.605512,0.750044 3.1920408,3.1662105 0 0 0 0.911908,0.556577 4.4088881,4.373211 0 0 0 0.782363,0.234614 q 0.788185,0.162426 1.850015,0.202851 a 18.947739,18.794412 0 0 0 0.71468,0.01227 h 12.758702 v 5.483478 H 84.987437 a 30.215221,29.970716 0 0 1 -2.07781,-0.06714 q -1.018164,-0.07002 -1.902416,-0.212236 A 15.126169,15.003766 0 0 1 79.99487,29.860436 10.977098,10.88827 0 0 1 78.447611,29.386876 Q 77.602659,29.054807 76.932374,28.60146 a 6.3848094,6.3331429 0 0 1 -0.299845,-0.215124 5.7472746,5.7007671 0 0 1 -1.893683,-2.525894 q -0.541467,-1.404798 -0.585134,-3.29615 a 14.771012,14.651484 0 0 1 -0.0036,-0.334957 V 5.636688 Z"
       id="1"
       style="fill:#000000;stroke-width:1.00157;stroke-miterlimit:4;stroke-dasharray:none" />
    <path
       d="m 132.09078,23.343933 v 5.770069 a 35.803112,35.513389 0 0 1 -6.11699,1.44739 q -3.05376,0.440353 -6.24362,0.440353 -4.01006,0 -7.15261,-0.843168 a 20.151486,19.988418 0 0 1 -0.10553,-0.02888 18.030009,17.884108 0 0 1 -2.84562,-1.027971 13.549071,13.43943 0 0 1 -2.51011,-1.497923 q -2.17461,-1.65385 -3.31649,-4.044751 a 11.850433,11.754538 0 0 1 -1.04145,-3.672977 14.861257,14.740998 0 0 1 -0.10044,-1.73759 12.14664,12.048348 0 0 1 0.91337,-4.674239 11.74345,11.648421 0 0 1 0.23798,-0.529867 12.479963,12.378973 0 0 1 3.26191,-4.171082 14.476262,14.359118 0 0 1 3.31867,-2.0689374 17.972514,17.827079 0 0 1 1.78306,-0.6995116 19.105667,18.951062 0 0 1 4.00716,-0.8568837 24.291823,24.095252 0 0 1 2.66221,-0.1407686 21.856673,21.679807 0 0 1 3.72769,0.3039158 17.887364,17.742618 0 0 1 2.47954,0.6042221 14.130566,14.016221 0 0 1 3.34633,1.5607267 12.46104,12.360204 0 0 1 1.49268,1.1268706 12.139362,12.041129 0 0 1 3.06468,4.2237801 13.957355,13.844411 0 0 1 0.0706,0.162425 13.757943,13.646613 0 0 1 0.92719,3.350292 18.329126,18.180805 0 0 1 0.18777,2.653669 v 1.65385 h -24.53927 q 0.32605,1.168741 1.07784,2.139683 a 5.653391,5.6076432 0 0 0 1.14116,1.094386 7.4000618,7.3401798 0 0 0 0.89808,0.559464 9.3053884,9.2300884 0 0 0 1.31146,0.564519 q 0.63026,0.219454 1.35585,0.388377 a 16.553344,16.419393 0 0 0 0.49489,0.107561 17.405574,17.264727 0 0 0 1.71393,0.251218 q 1.26342,0.126331 2.77211,0.126331 a 28.622839,28.39122 0 0 0 3.62434,-0.224508 32.963316,32.696574 0 0 0 2.12803,-0.337123 27.434375,27.212374 0 0 0 1.18846,-0.256271 29.496902,29.258211 0 0 0 1.46575,-0.389099 22.462914,22.281142 0 0 0 1.31655,-0.428802 17.543852,17.401886 0 0 0 0.8304,-0.323407 q 0.38499,-0.161704 0.7074,-0.323407 a 7.7333848,7.6708055 0 0 0 0.46505,-0.25194 z m -22.4913,-7.586344 h 17.85171 q -0.091,-0.916801 -0.55312,-1.896406 a 4.6264942,4.5890561 0 0 0 -0.82384,-1.191841 6.0027252,5.9541505 0 0 0 -0.63535,-0.578955 6.4466706,6.3945036 0 0 0 -1.04946,-0.669915 q -0.51818,-0.267821 -1.13607,-0.490163 a 11.864261,11.768254 0 0 0 -0.42356,-0.143656 q -1.61349,-0.51182 -4.0239,-0.51182 a 15.372886,15.248487 0 0 0 -1.80198,0.0989 q -1.15935,0.135715 -2.11274,0.4584 a 12.010545,11.913354 0 0 0 -1.38497,0.560187 q -0.70885,0.342176 -1.28234,0.753653 a 7.2923504,7.23334 0 0 0 -0.0961,0.07002 8.2559304,8.1891227 0 0 0 -0.93592,0.802742 6.0864198,6.0371679 0 0 0 -0.79474,0.976718 7.5201454,7.4592916 0 0 0 -0.41556,0.722612 q -0.18631,0.374661 -0.29694,0.724056 a 3.8586868,3.8274619 0 0 0 -0.0851,0.315466 z"
       id="2"
       style="fill:#000000;stroke-width:1.002;stroke-miterlimit:4;stroke-dasharray:none" />
    <path
       d="m 166.77767,6.5129996 -10.42206,11.1727024 10.97785,11.774965 h -7.49233 l -7.24013,-7.732832 -7.207,7.732832 h -7.47543 L 148.87952,17.685702 138.45746,6.5129996 h 7.49233 l 6.65121,7.1815414 6.68434,-7.1815414 z"
       id="3-1"
       style="fill:#2dffff;fill-opacity:1;stroke:#157878;stroke-width:2.75459;stroke-miterlimit:4;stroke-dasharray:none;stroke-opacity:1" />
    <path
       d="m 190.82841,22.534694 h -11.16414 v 7.80219 h -6.72395 V 5.636688 h 17.88809 q 2.22991,0 3.91399,0.4064242 a 10.434174,10.34974 0 0 1 0.76199,0.2136795 9.7828118,9.7036483 0 0 1 1.59384,0.6655828 7.1533445,7.095459 0 0 1 1.5327,1.0777821 q 1.2052,1.123983 1.74885,2.6695504 0.54366,1.546288 0.54366,3.397937 a 11.196887,11.106281 0 0 1 -0.20233,2.146179 9.4196498,9.3434251 0 0 1 -0.34133,1.260421 q -0.54365,1.554951 -1.74885,2.678213 a 7.2566892,7.1979674 0 0 1 -1.58292,1.108101 9.9560233,9.8754582 0 0 1 -1.54362,0.644648 q -1.92134,0.629488 -4.67598,0.629488 z m -1.44974,-11.631095 h -9.7144 v 6.364184 h 9.7144 a 18.930272,18.777087 0 0 0 0.93374,-0.02166 q 0.44395,-0.02166 0.82821,-0.06569 a 8.8578041,8.7861259 0 0 0 0.46724,-0.06569 5.1548621,5.1131484 0 0 0 0.63098,-0.145099 q 0.31877,-0.09601 0.57932,-0.228118 a 2.6593062,2.6377869 0 0 0 0.25763,-0.147987 2.0945493,2.0776001 0 0 0 0.80638,-0.961558 3.0421182,3.0175011 0 0 0 0.17176,-0.593394 q 0.0538,-0.287312 0.0677,-0.617938 a 5.7778413,5.7310865 0 0 0 0.005,-0.245443 5.2152678,5.1730653 0 0 0 -0.04,-0.660529 q -0.059,-0.454069 -0.20451,-0.822233 a 2.2306441,2.2125935 0 0 0 -0.80638,-1.0157 3.0646794,3.0398797 0 0 0 -0.58004,-0.316187 q -0.2882,-0.121278 -0.63171,-0.208627 a 5.8236914,5.7765655 0 0 0 -0.25618,-0.0592 7.8527406,7.7891955 0 0 0 -0.73797,-0.115502 q -0.40465,-0.04476 -0.87042,-0.06208 a 16.357572,16.225205 0 0 0 -0.6208,-0.01155 z"
       id="4"
       style="fill:#000000;stroke-width:1.00157;stroke-miterlimit:4;stroke-dasharray:none" />
    <path
       d="m 227.56453,30.336884 -2.33763,-4.674239 h -13.88239 l -2.33836,4.674239 h -7.50267 L 214.53364,5.636688 h 7.50341 l 13.03089,24.700196 z m -9.2428,-18.587952 -4.56681,9.095817 h 9.09797 z"
       id="5"
       style="fill:#000000;stroke-width:1.00157;stroke-miterlimit:4;stroke-dasharray:none" />
    <path
       d="m 245.86964,30.336884 h -6.72395 V 5.636688 h 6.72395 z"
       id="6"
       style="fill:#000000;stroke-width:1.00157;stroke-miterlimit:4;stroke-dasharray:none" />
    <path
       d="m 260.38593,21.240345 v 9.096539 H 253.6627 V 5.636688 h 16.85465 a 22.117218,21.938244 0 0 1 1.92279,0.077964 q 1.50578,0.1306621 2.68915,0.4793351 1.79325,0.5277018 2.95333,1.4740999 a 6.1148032,6.0653216 0 0 1 0.12809,0.1075616 q 1.187,1.0250841 1.72119,2.4717524 a 8.7151593,8.6446354 0 0 1 0.47015,2.029955 10.959631,10.870945 0 0 1 0.0648,1.196894 q 0,1.564336 -0.44394,2.732355 a 6.7967326,6.7417328 0 0 1 -0.67538,1.331165 5.814958,5.7679029 0 0 1 -0.52109,0.673524 7.1380611,7.0802993 0 0 1 -1.74886,1.411295 q -0.99633,0.575347 -2.10182,0.952895 l 8.15549,9.7614 h -7.86584 l -7.53907,-9.096539 z m 9.20714,-10.444308 h -9.20714 v 5.284959 h 9.20714 q 0.8515,0 1.49995,-0.07508 a 7.2253947,7.1669261 0 0 0 0.46651,-0.06858 4.6839887,4.6460855 0 0 0 0.52546,-0.125609 q 0.4323,-0.131384 0.7336,-0.332792 0.4716,-0.314744 0.66155,-0.817901 a 2.772112,2.7496798 0 0 0 0.13391,-0.50027 q 0.0422,-0.246887 0.0531,-0.529868 a 5.1927066,5.1506867 0 0 0 0.004,-0.192744 4.603933,4.5666775 0 0 0 -0.0313,-0.543584 q -0.0451,-0.377548 -0.15938,-0.678577 -0.18995,-0.503157 -0.66155,-0.817901 a 2.4649891,2.4450422 0 0 0 -0.45414,-0.235336 q -0.34933,-0.140047 -0.80492,-0.223064 a 7.6875346,7.6253264 0 0 0 -0.64627,-0.08735 q -0.34715,-0.03393 -0.74743,-0.04692 a 16.831356,16.695155 0 0 0 -0.57276,-0.0094 z"
       id="7"
       style="fill:#000000;stroke:#000000;stroke-width:1.00157;stroke-miterlimit:4;stroke-dasharray:none;stroke-opacity:1" />
  </g>
  <g
     id="svgGroup-55"
     stroke-linecap="round"
     fill-rule="evenodd"
     font-size="12px"
     stroke="#000"
     stroke-width="0"
     fill="#000"
     style="fill:#000000;stroke:#000000;stroke-width:0"
     transform="matrix(0.33773353,0,0,0.33773353,10.037033,51.693333)"
     inkscape:label="TM Sign">
    <path
       d="M 11.04,10.56 H 9.24 V 0 h 2.82 L 14.88,8.13 17.79,0 h 2.73 V 10.56 H 18.6 V 4.44 A 6.784,6.784 0 0 1 18.601,4.313 Q 18.605,4.108 18.62,3.738 a 80.83,80.83 0 0 1 0.01,-0.243 q 0.023,-0.54 0.046,-0.877 A 12.48,12.48 0 0 1 18.69,2.43 h -0.12 l -3.03,8.13 H 13.95 L 11.07,2.43 h -0.12 a 73.612,73.612 0 0 1 0.029,0.493 q 0.016,0.278 0.031,0.587 a 63.099,63.099 0 0 1 0.012,0.242 Q 11.04,4.149 11.04,4.29 Z m -6.12,0 H 3.03 V 1.62 H 0 V 0 H 7.98 V 1.62 H 4.92 Z"
       id="path1-8" />
  </g>
  <g
     id="svgGroup-0"
     stroke-linecap="round"
     fill-rule="evenodd"
     font-size="12px"
     stroke="#000"
     stroke-width="0.0mm"
     fill="#000"
     style="fill:#000000;stroke:#000000;stroke-width:0mm"
     transform="matrix(0.17722245,0,0,0.17722245,18.729983,52.614521)">
    <path
       d="m 15.1,0.1 v 15.3 a 131.81,131.81 0 0 1 -0.048,3.649 Q 14.991,21.266 14.85,23.15 14.6,26.5 14.4,28.5 h 0.8 a 17.488,17.488 0 0 1 2.08,-2.74 13.95,13.95 0 0 1 2.12,-1.86 q 2.4,-1.7 5.35,-2.55 A 22.149,22.149 0 0 1 30.18,20.514 25.129,25.129 0 0 1 31,20.5 28.014,28.014 0 0 1 36.12,20.946 20.786,20.786 0 0 1 41.3,22.6 q 4.4,2.1 6.85,6.45 a 17.226,17.226 0 0 1 1.664,4.29 q 0.491,1.962 0.675,4.268 A 36.357,36.357 0 0 1 50.6,40.5 V 76.1 H 35.5 V 44.3 A 26.743,26.743 0 0 0 35.334,41.215 Q 34.932,37.763 33.556,35.678 A 7.812,7.812 0 0 0 33.4,35.45 q -2.1,-2.95 -6.6,-2.95 -4.4,0 -6.95,2.1 a 10.053,10.053 0 0 0 -2.464,3.063 q -0.677,1.265 -1.127,2.828 A 17.85,17.85 0 0 0 16.2,40.7 q -1.1,4 -1.1,9.8 V 76.1 H 0 v -76 z"
       id="0-2" />
    <path
       d="M 110.5,39.7 V 76.1 H 100 l -2.9,-7.4 h -0.4 q -2.3,2.9 -4.75,4.8 -2.45,1.9 -5.65,2.75 a 22.872,22.872 0 0 1 -2.831,0.551 q -1.399,0.187 -2.99,0.257 A 44.919,44.919 0 0 1 78.5,77.1 21.343,21.343 0 0 1 73.549,76.547 17.627,17.627 0 0 1 69.9,75.25 Q 66.1,73.4 63.9,69.6 A 15.365,15.365 0 0 1 62.259,65.338 Q 61.7,62.923 61.7,60 A 18.844,18.844 0 0 1 62.416,54.652 13.657,13.657 0 0 1 67.9,47.1 q 6.077,-4.215 18.016,-4.778 A 73.87,73.87 0 0 1 86.4,42.3 L 95.5,42 V 40.3 A 17.1,17.1 0 0 0 95.345,37.906 Q 94.959,35.185 93.611,33.753 A 4.786,4.786 0 0 0 93.3,33.45 7.226,7.226 0 0 0 90.553,31.958 Q 89.038,31.5 87.1,31.5 A 24.881,24.881 0 0 0 81.317,32.204 29.241,29.241 0 0 0 79.5,32.7 q -3.9,1.2 -7.7,2.9 L 67.4,25.3 q 4.3,-2.2 9.85,-3.5 A 49,49 0 0 1 84.549,20.687 61.283,61.283 0 0 1 89.4,20.5 q 7.036,0 11.785,2.263 a 16.325,16.325 0 0 1 3.915,2.587 q 4.989,4.481 5.369,12.93 a 31.616,31.616 0 0 1 0.031,1.42 z m -15,11.1 -5.7,0.3 q -5.571,0.157 -8.495,1.484 A 7.499,7.499 0 0 0 79.9,53.4 6.768,6.768 0 0 0 77.145,58.363 9.497,9.497 0 0 0 77.1,59.3 a 9.96,9.96 0 0 0 0.172,1.915 q 0.407,2.075 1.778,3.235 1.902,1.61 4.994,1.649 A 12.235,12.235 0 0 0 84.2,66.1 13.58,13.58 0 0 0 88.216,65.53 11.141,11.141 0 0 0 92.25,63.3 9.088,9.088 0 0 0 95.228,58.106 13.741,13.741 0 0 0 95.5,55.3 Z"
       id="1-4" />
    <path
       d="m 175.5,40.5 v 35.6 h -15 V 44.3 a 26.127,26.127 0 0 0 -0.17,-3.085 q -0.435,-3.644 -1.98,-5.765 A 6.915,6.915 0 0 0 154.105,32.747 11.04,11.04 0 0 0 151.7,32.5 15.372,15.372 0 0 0 148.306,32.848 Q 144.23,33.772 142.45,37.15 140,41.8 140,50.5 V 76.1 H 124.9 V 21.5 h 11.6 l 2.1,7.3 h 0.6 q 1.8,-2.7 4.35,-4.55 2.55,-1.85 5.7,-2.8 a 22.412,22.412 0 0 1 4.702,-0.866 27.024,27.024 0 0 1 2.148,-0.084 27.925,27.925 0 0 1 5.738,0.556 q 3.708,0.778 6.534,2.649 a 16.241,16.241 0 0 1 1.928,1.495 14.082,14.082 0 0 1 3.689,5.587 q 0.874,2.312 1.242,5.197 A 35.707,35.707 0 0 1 175.5,40.5 Z"
       id="2-8" />
    <path
       d="m 223.6,28.5 h 0.5 q -0.23,-1.378 -0.43,-3.606 A 112.389,112.389 0 0 1 223.55,23.45 Q 223.3,20.2 223.3,17.5 V 0.1 h 15.2 v 76 h -11.6 l -3,-7.1 h -0.6 q -1.4,2.3 -3.5,4.1 -2.1,1.8 -5.05,2.9 -2.766,1.032 -6.454,1.096 A 28.385,28.385 0 0 1 207.8,77.1 17.901,17.901 0 0 1 194.251,71.329 22.686,22.686 0 0 1 193.05,69.95 22.995,22.995 0 0 1 189.222,62.716 Q 187.3,56.936 187.3,48.9 a 54.931,54.931 0 0 1 0.511,-7.759 q 0.568,-3.967 1.765,-7.179 a 22.278,22.278 0 0 1 3.524,-6.312 18.436,18.436 0 0 1 13.398,-7.082 23.412,23.412 0 0 1 1.802,-0.068 24.372,24.372 0 0 1 3.158,0.194 q 1.967,0.257 3.592,0.856 a 17.255,17.255 0 0 1 3.808,1.947 15.534,15.534 0 0 1 1.192,0.903 q 2.15,1.8 3.55,4.1 z m 0.7,22.1 V 49 a 41.779,41.779 0 0 0 -0.223,-4.47 q -0.495,-4.59 -2.093,-7.481 A 12.075,12.075 0 0 0 221.9,36.9 q -2.209,-3.866 -7.893,-4.173 A 18.664,18.664 0 0 0 213,32.7 q -4.9,0 -7.65,4.2 a 14.338,14.338 0 0 0 -1.676,3.685 q -0.554,1.812 -0.822,4.02 a 37.368,37.368 0 0 0 -0.252,4.495 37.426,37.426 0 0 0 0.218,4.18 q 0.511,4.536 2.224,7.301 a 10.471,10.471 0 0 0 0.308,0.469 8.728,8.728 0 0 0 6.315,3.863 11.503,11.503 0 0 0 1.435,0.087 16.909,16.909 0 0 0 3.154,-0.273 q 3.739,-0.711 5.546,-3.277 a 11.386,11.386 0 0 0 1.474,-3.036 Q 224.3,55.277 224.3,50.6 Z"
       id="3-3" />
    <path
       d="m 279.2,21.5 h 15.1 V 76.1 H 279.2 Z M 289.865,0.382 A 11.838,11.838 0 0 0 286.8,0 12.894,12.894 0 0 0 284.557,0.188 9.535,9.535 0 0 0 281,1.55 4.591,4.591 0 0 0 279.357,3.438 q -0.404,0.826 -0.593,1.9 A 11.969,11.969 0 0 0 278.6,7.4 q 0,1.826 0.476,3.156 A 4.96,4.96 0 0 0 281,13.1 a 9.189,9.189 0 0 0 2.97,1.283 12.049,12.049 0 0 0 2.83,0.317 12.524,12.524 0 0 0 1.452,-0.082 9.825,9.825 0 0 0 4.298,-1.518 4.783,4.783 0 0 0 1.543,-1.637 Q 295,9.894 295,7.4 295,5.368 294.453,3.95 a 4.77,4.77 0 0 0 -1.903,-2.4 9.646,9.646 0 0 0 -2.685,-1.168 z"
       id="5-90" />
    <path
       d="m 359.6,40.5 v 35.6 h -15 V 44.3 a 26.127,26.127 0 0 0 -0.17,-3.085 q -0.435,-3.644 -1.98,-5.765 A 6.915,6.915 0 0 0 338.205,32.747 11.04,11.04 0 0 0 335.8,32.5 15.372,15.372 0 0 0 332.406,32.848 Q 328.33,33.772 326.55,37.15 324.1,41.8 324.1,50.5 V 76.1 H 309 V 21.5 h 11.6 l 2.1,7.3 h 0.6 q 1.8,-2.7 4.35,-4.55 2.55,-1.85 5.7,-2.8 a 22.412,22.412 0 0 1 4.702,-0.866 27.024,27.024 0 0 1 2.148,-0.084 27.925,27.925 0 0 1 5.738,0.556 q 3.708,0.778 6.534,2.649 a 16.241,16.241 0 0 1 1.928,1.495 14.082,14.082 0 0 1 3.689,5.587 q 0.874,2.312 1.242,5.197 A 35.707,35.707 0 0 1 359.6,40.5 Z"
       id="6-5" />
    <path
       d="m 415.1,0.1 v 15.3 a 131.81,131.81 0 0 1 -0.048,3.649 q -0.061,2.217 -0.202,4.101 -0.25,3.35 -0.45,5.35 h 0.8 a 17.488,17.488 0 0 1 2.08,-2.74 13.95,13.95 0 0 1 2.12,-1.86 q 2.4,-1.7 5.35,-2.55 a 22.149,22.149 0 0 1 5.43,-0.836 25.129,25.129 0 0 1 0.82,-0.014 28.014,28.014 0 0 1 5.12,0.446 20.786,20.786 0 0 1 5.18,1.654 q 4.4,2.1 6.85,6.45 a 17.226,17.226 0 0 1 1.664,4.29 q 0.491,1.962 0.675,4.268 A 36.357,36.357 0 0 1 450.6,40.5 V 76.1 H 435.5 V 44.3 a 26.743,26.743 0 0 0 -0.166,-3.085 q -0.402,-3.452 -1.778,-5.537 A 7.812,7.812 0 0 0 433.4,35.45 q -2.1,-2.95 -6.6,-2.95 -4.4,0 -6.95,2.1 a 10.053,10.053 0 0 0 -2.464,3.063 q -0.677,1.265 -1.127,2.828 A 17.85,17.85 0 0 0 416.2,40.7 q -1.1,4 -1.1,9.8 V 76.1 H 400 v -76 z"
       id="8-2" />
    <path
       d="M 510.5,39.7 V 76.1 H 500 l -2.9,-7.4 h -0.4 q -2.3,2.9 -4.75,4.8 -2.45,1.9 -5.65,2.75 a 22.872,22.872 0 0 1 -2.831,0.551 q -1.399,0.187 -2.99,0.257 A 44.919,44.919 0 0 1 478.5,77.1 21.343,21.343 0 0 1 473.549,76.547 17.627,17.627 0 0 1 469.9,75.25 q -3.8,-1.85 -6,-5.65 a 15.365,15.365 0 0 1 -1.641,-4.262 Q 461.7,62.923 461.7,60 a 18.844,18.844 0 0 1 0.716,-5.348 13.657,13.657 0 0 1 5.484,-7.552 q 6.077,-4.215 18.016,-4.778 A 73.87,73.87 0 0 1 486.4,42.3 l 9.1,-0.3 v -1.7 a 17.1,17.1 0 0 0 -0.155,-2.394 q -0.386,-2.721 -1.734,-4.153 A 4.786,4.786 0 0 0 493.3,33.45 7.226,7.226 0 0 0 490.553,31.958 Q 489.037,31.5 487.1,31.5 a 24.881,24.881 0 0 0 -5.783,0.704 29.241,29.241 0 0 0 -1.817,0.496 q -3.9,1.2 -7.7,2.9 l -4.4,-10.3 q 4.3,-2.2 9.85,-3.5 a 49,49 0 0 1 7.299,-1.113 61.283,61.283 0 0 1 4.851,-0.187 q 7.036,0 11.785,2.263 a 16.325,16.325 0 0 1 3.915,2.587 q 4.989,4.481 5.369,12.93 a 31.616,31.616 0 0 1 0.031,1.42 z m -15,11.1 -5.7,0.3 q -5.571,0.157 -8.495,1.484 a 7.499,7.499 0 0 0 -1.405,0.816 6.768,6.768 0 0 0 -2.755,4.963 9.497,9.497 0 0 0 -0.045,0.937 9.96,9.96 0 0 0 0.172,1.915 q 0.407,2.075 1.778,3.235 1.902,1.61 4.994,1.649 a 12.235,12.235 0 0 0 0.156,10e-4 13.58,13.58 0 0 0 4.016,-0.57 11.141,11.141 0 0 0 4.034,-2.23 9.088,9.088 0 0 0 2.978,-5.194 13.741,13.741 0 0 0 0.272,-2.806 z"
       id="9" />
    <path
       d="m 575.5,40.5 v 35.6 h -15 V 44.3 a 26.127,26.127 0 0 0 -0.17,-3.085 q -0.435,-3.644 -1.98,-5.765 A 6.915,6.915 0 0 0 554.105,32.747 11.04,11.04 0 0 0 551.7,32.5 15.372,15.372 0 0 0 548.306,32.848 Q 544.23,33.772 542.45,37.15 540,41.8 540,50.5 V 76.1 H 524.9 V 21.5 h 11.6 l 2.1,7.3 h 0.6 q 1.8,-2.7 4.35,-4.55 2.55,-1.85 5.7,-2.8 a 22.412,22.412 0 0 1 4.702,-0.866 27.024,27.024 0 0 1 2.148,-0.084 27.925,27.925 0 0 1 5.738,0.556 q 3.708,0.778 6.534,2.649 a 16.241,16.241 0 0 1 1.928,1.495 14.082,14.082 0 0 1 3.689,5.587 q 0.874,2.312 1.242,5.197 A 35.707,35.707 0 0 1 575.5,40.5 Z"
       id="10-2" />
    <path
       d="m 623.6,28.5 h 0.5 q -0.23,-1.378 -0.43,-3.606 A 112.389,112.389 0 0 1 623.55,23.45 Q 623.3,20.2 623.3,17.5 V 0.1 h 15.2 v 76 h -11.6 l -3,-7.1 h -0.6 q -1.4,2.3 -3.5,4.1 -2.1,1.8 -5.05,2.9 -2.766,1.032 -6.454,1.096 A 28.385,28.385 0 0 1 607.8,77.1 17.901,17.901 0 0 1 594.251,71.329 22.686,22.686 0 0 1 593.05,69.95 22.995,22.995 0 0 1 589.222,62.716 Q 587.3,56.936 587.3,48.9 a 54.931,54.931 0 0 1 0.511,-7.759 q 0.568,-3.967 1.765,-7.179 a 22.278,22.278 0 0 1 3.524,-6.312 18.436,18.436 0 0 1 13.398,-7.082 23.412,23.412 0 0 1 1.802,-0.068 24.372,24.372 0 0 1 3.158,0.194 q 1.967,0.257 3.592,0.856 a 17.255,17.255 0 0 1 3.808,1.947 15.534,15.534 0 0 1 1.192,0.903 q 2.15,1.8 3.55,4.1 z m 0.7,22.1 V 49 a 41.779,41.779 0 0 0 -0.223,-4.47 q -0.495,-4.59 -2.093,-7.481 A 12.075,12.075 0 0 0 621.9,36.9 q -2.209,-3.866 -7.893,-4.173 A 18.664,18.664 0 0 0 613,32.7 q -4.9,0 -7.65,4.2 a 14.338,14.338 0 0 0 -1.676,3.685 q -0.554,1.812 -0.822,4.02 a 37.368,37.368 0 0 0 -0.252,4.495 37.426,37.426 0 0 0 0.218,4.18 q 0.511,4.536 2.224,7.301 a 10.471,10.471 0 0 0 0.308,0.469 8.728,8.728 0 0 0 6.315,3.863 11.503,11.503 0 0 0 1.435,0.087 16.909,16.909 0 0 0 3.154,-0.273 q 3.739,-0.711 5.546,-3.277 a 11.386,11.386 0 0 0 1.474,-3.036 Q 624.3,55.277 624.3,50.6 Z"
       id="11-7" />
    <path
       d="M 724.5,76.1 720.3,57 q -0.4,-1.7 -1.15,-5.05 -0.75,-3.35 -1.65,-7.2 -0.9,-3.85 -1.7,-7.1 a 269.535,269.535 0 0 1 -0.369,-1.515 q -0.481,-2.005 -0.708,-3.12 A 33.977,33.977 0 0 1 714.7,32.9 h -0.4 q -0.289,1.444 -0.995,4.51 a 478.733,478.733 0 0 1 -0.055,0.24 q -0.75,3.25 -1.65,7.1 -0.9,3.85 -1.7,7.25 -0.612,2.603 -0.991,4.269 A 210.896,210.896 0 0 0 708.7,57.2 l -4.4,18.9 h -16 L 672.8,21.5 h 14.8 l 6.3,24.2 q 0.536,1.914 0.984,4.415 a 75.065,75.065 0 0 1 0.266,1.585 q 0.55,3.5 1.05,6.75 a 201.491,201.491 0 0 1 0.231,1.541 q 0.219,1.502 0.359,2.645 a 59.179,59.179 0 0 1 0.11,0.964 h 0.4 q 0.077,-1.072 0.27,-2.7 a 123.999,123.999 0 0 1 0.13,-1.05 94.838,94.838 0 0 1 0.64,-4.227 105.248,105.248 0 0 1 0.11,-0.623 q 0.45,-2.5 0.8,-4.55 a 85.755,85.755 0 0 1 0.156,-0.886 q 0.199,-1.094 0.337,-1.651 A 6.621,6.621 0 0 1 699.8,47.7 l 6.7,-26.2 h 16.4 l 6.4,26.2 q 0.4,1.4 0.95,4.5 0.55,3.1 1,6.3 a 64.408,64.408 0 0 1 0.237,1.873 q 0.191,1.718 0.211,2.945 A 17.267,17.267 0 0 1 731.7,63.6 h 0.4 q 0.153,-1.301 0.482,-3.511 A 298.608,298.608 0 0 1 732.8,58.65 q 0.5,-3.25 1.15,-6.85 0.498,-2.756 1.025,-4.867 A 44.899,44.899 0 0 1 735.3,45.7 l 6.5,-24.2 h 14.6 l -15.7,54.6 z"
       id="13-3" />
    <path
       d="m 764.8,21.5 h 15.1 V 76.1 H 764.8 Z M 775.465,0.382 A 11.838,11.838 0 0 0 772.4,0 12.894,12.894 0 0 0 770.157,0.188 9.535,9.535 0 0 0 766.6,1.55 4.591,4.591 0 0 0 764.957,3.438 q -0.404,0.826 -0.593,1.9 A 11.969,11.969 0 0 0 764.2,7.4 q 0,1.826 0.476,3.156 a 4.96,4.96 0 0 0 1.924,2.544 9.189,9.189 0 0 0 2.97,1.283 12.049,12.049 0 0 0 2.83,0.317 12.524,12.524 0 0 0 1.452,-0.082 9.825,9.825 0 0 0 4.298,-1.518 4.783,4.783 0 0 0 1.543,-1.637 Q 780.6,9.894 780.6,7.4 q 0,-2.032 -0.547,-3.45 a 4.77,4.77 0 0 0 -1.903,-2.4 9.646,9.646 0 0 0 -2.685,-1.168 z"
       id="14" />
    <path
       d="m 827.5,63.5 v 11.1 a 25.053,25.053 0 0 1 -2.14,0.772 q -1.064,0.333 -2.286,0.632 a 49.379,49.379 0 0 1 -1.524,0.346 34.486,34.486 0 0 1 -4.63,0.64 43.067,43.067 0 0 1 -3.12,0.11 q -4.9,0 -8.75,-1.6 A 12.178,12.178 0 0 1 799.499,70.844 15.446,15.446 0 0 1 798.95,69.95 Q 796.7,66 796.7,59 V 32.7 h -7.1 v -6.3 l 8.2,-5 4.3,-11.5 h 9.5 v 11.6 h 15.3 V 32.7 H 811.6 V 59 a 8.499,8.499 0 0 0 0.176,1.786 q 0.387,1.799 1.624,2.864 a 6.234,6.234 0 0 0 2.817,1.363 8.992,8.992 0 0 0 1.883,0.187 22.693,22.693 0 0 0 4.439,-0.425 20.957,20.957 0 0 0 0.361,-0.075 q 2.3,-0.5 4.6,-1.2 z"
       id="15-7" />
    <path
       d="m 853.1,0.1 v 15.3 a 131.81,131.81 0 0 1 -0.048,3.649 q -0.061,2.217 -0.202,4.101 -0.25,3.35 -0.45,5.35 h 0.8 a 17.488,17.488 0 0 1 2.08,-2.74 13.95,13.95 0 0 1 2.12,-1.86 q 2.4,-1.7 5.35,-2.55 a 22.149,22.149 0 0 1 5.43,-0.836 25.129,25.129 0 0 1 0.82,-0.014 28.014,28.014 0 0 1 5.12,0.446 20.786,20.786 0 0 1 5.18,1.654 q 4.4,2.1 6.85,6.45 a 17.226,17.226 0 0 1 1.664,4.29 q 0.491,1.962 0.675,4.268 A 36.357,36.357 0 0 1 888.6,40.5 V 76.1 H 873.5 V 44.3 a 26.743,26.743 0 0 0 -0.166,-3.085 q -0.402,-3.452 -1.778,-5.537 A 7.812,7.812 0 0 0 871.4,35.45 q -2.1,-2.95 -6.6,-2.95 -4.4,0 -6.95,2.1 a 10.053,10.053 0 0 0 -2.464,3.063 q -0.677,1.265 -1.127,2.828 A 17.85,17.85 0 0 0 854.2,40.7 q -1.1,4 -1.1,9.8 V 76.1 H 838 v -76 z"
       id="16" />
    <path
       d="m 963,28.4 h 0.5 l 1.3,-6.9 h 12.8 v 55 a 32.759,32.759 0 0 1 -0.49,5.826 q -0.61,3.372 -1.978,6.126 a 19.454,19.454 0 0 1 -0.532,0.998 18.495,18.495 0 0 1 -7.409,7.14 23.297,23.297 0 0 1 -1.641,0.81 q -4.848,2.164 -11.782,2.594 A 57.695,57.695 0 0 1 950.2,100.1 90.84,90.84 0 0 1 944.402,99.924 Q 941.478,99.737 938.9,99.35 A 41.117,41.117 0 0 1 930.609,97.234 37.95,37.95 0 0 1 929.5,96.8 V 84 q 4.5,2 9.25,3.1 4.415,1.023 10.082,1.095 A 68.18,68.18 0 0 0 949.7,88.2 q 4.196,0 7.039,-1.286 A 9.821,9.821 0 0 0 959.25,85.3 q 3.25,-2.9 3.25,-8 v -1.5 a 25.803,25.803 0 0 1 0.015,-0.828 q 0.03,-0.931 0.122,-2.191 a 87.119,87.119 0 0 1 0.013,-0.181 79.951,79.951 0 0 1 0.12,-1.429 Q 962.875,70.038 963,69.1 h -0.5 q -2.3,3.6 -6.05,5.8 a 15.223,15.223 0 0 1 -4.433,1.701 Q 949.769,77.1 947.1,77.1 a 19.49,19.49 0 0 1 -7.628,-1.447 q -4.221,-1.775 -7.324,-5.727 A 22.816,22.816 0 0 1 932.05,69.8 24.183,24.183 0 0 1 928.188,62.207 q -1.062,-3.359 -1.493,-7.42 A 55.826,55.826 0 0 1 926.4,48.9 q 0,-9.144 2.577,-15.485 A 23.437,23.437 0 0 1 932.1,27.9 18.88,18.88 0 0 1 938.49,22.468 Q 942.353,20.5 947.2,20.5 a 25.133,25.133 0 0 1 4.008,0.303 q 3.117,0.504 5.492,1.847 3.8,2.15 6.3,5.75 z m 0.5,22.5 v -2.2 a 45.452,45.452 0 0 0 -0.142,-3.707 q -0.143,-1.736 -0.428,-3.225 A 20.844,20.844 0 0 0 962.4,39.6 12.48,12.48 0 0 0 961.301,37.017 8.844,8.844 0 0 0 958.8,34.2 q -2.097,-1.51 -5.391,-1.753 A 17.78,17.78 0 0 0 952.1,32.4 q -3.3,0 -5.65,1.9 -2.208,1.786 -3.357,5.161 a 17.312,17.312 0 0 0 -0.143,0.439 22.89,22.89 0 0 0 -0.745,3.304 q -0.405,2.631 -0.405,5.896 0,7.561 2.253,11.552 a 10.704,10.704 0 0 0 0.397,0.648 8.556,8.556 0 0 0 6.206,3.882 12.407,12.407 0 0 0 1.744,0.118 q 2.583,0 4.498,-0.667 A 9.241,9.241 0 0 0 957.5,64.4 q 2.1,-0.9 3.4,-2.65 1.3,-1.75 1.95,-4.45 a 21.621,21.621 0 0 0 0.444,-2.554 q 0.155,-1.323 0.193,-2.825 A 39.774,39.774 0 0 0 963.5,50.9 Z"
       id="18-9" />
    <path
       d="m 1007.3,0.1 v 76 h -15.1 v -76 z"
       id="19-0" />
    <path
       d="M 1071.966,54.936 A 42.735,42.735 0 0 0 1072.4,48.7 q 0,-4.265 -0.747,-7.916 A 27.106,27.106 0 0 0 1069,33.3 a 27.689,27.689 0 0 0 -0.324,-0.584 23.014,23.014 0 0 0 -8.976,-8.966 25.211,25.211 0 0 0 -6.138,-2.386 30.985,30.985 0 0 0 -7.462,-0.864 36.044,36.044 0 0 0 -6.379,0.539 26.268,26.268 0 0 0 -7.921,2.711 q -6,3.25 -9.2,9.55 a 24.881,24.881 0 0 0 -0.673,1.438 Q 1019.4,40.613 1019.4,48.7 a 40.363,40.363 0 0 0 0.356,5.471 30.394,30.394 0 0 0 1.644,6.629 29.699,29.699 0 0 0 1.244,2.847 24.171,24.171 0 0 0 4.256,6.053 q 3.5,3.6 8.3,5.5 4.8,1.9 10.6,1.9 a 35.926,35.926 0 0 0 4.645,-0.29 27.697,27.697 0 0 0 6.455,-1.61 26.079,26.079 0 0 0 0.076,-0.03 22.798,22.798 0 0 0 8.274,-5.47 22.059,22.059 0 0 0 2.713,-3.475 26.305,26.305 0 0 0 2.587,-5.425 31.886,31.886 0 0 0 1.416,-5.864 z M 1034.8,48.7 a 41.026,41.026 0 0 0 0.19,4.059 q 0.199,2.002 0.608,3.73 a 22.032,22.032 0 0 0 0.352,1.311 14.748,14.748 0 0 0 1.097,2.694 q 1.01,1.888 2.503,3.106 2.356,1.924 6.146,1.997 a 15.648,15.648 0 0 0 0.304,0.003 12.419,12.419 0 0 0 2.773,-0.293 8.597,8.597 0 0 0 3.577,-1.707 9.786,9.786 0 0 0 2.382,-2.914 q 0.704,-1.283 1.168,-2.886 a 25.726,25.726 0 0 0 0.752,-3.612 q 0.258,-1.86 0.325,-3.982 A 48.008,48.008 0 0 0 1057,48.7 a 42.349,42.349 0 0 0 -0.162,-3.811 q -0.269,-2.976 -0.988,-5.289 -1.085,-3.491 -3.283,-5.424 a 8.949,8.949 0 0 0 -0.267,-0.226 8.306,8.306 0 0 0 -3.206,-1.576 Q 1047.65,32 1045.9,32 a 12.254,12.254 0 0 0 -3.392,0.441 8.526,8.526 0 0 0 -5.058,3.859 15.16,15.16 0 0 0 -1.612,3.748 q -1.022,3.526 -1.038,8.494 a 49.161,49.161 0 0 0 0,0.158 z"
       id="20" />
    <path
       d="m 1099.6,0.1 v 17.7 a 115.254,115.254 0 0 1 -0.077,4.302 99.051,99.051 0 0 1 -0.073,1.598 q -0.15,2.8 -0.45,4.9 h 0.6 a 18.754,18.754 0 0 1 4.971,-5.126 22.055,22.055 0 0 1 0.929,-0.624 14.046,14.046 0 0 1 4.101,-1.725 q 1.804,-0.459 3.924,-0.581 A 27.447,27.447 0 0 1 1115.1,20.5 q 9.029,0 14.711,7.039 a 23.411,23.411 0 0 1 0.089,0.111 23.062,23.062 0 0 1 3.794,7.233 q 1.072,3.252 1.541,7.217 a 56.304,56.304 0 0 1 0.365,6.6 q 0,9.3 -2.6,15.65 -2.6,6.35 -7.35,9.55 a 18.817,18.817 0 0 1 -9.611,3.162 23.147,23.147 0 0 1 -1.339,0.038 27.119,27.119 0 0 1 -3.663,-0.231 q -3.469,-0.474 -5.787,-1.919 -3.45,-2.15 -5.65,-4.75 h -1 l -2.5,5.9 h -11.6 v -76 z m 0,47.3 v 1.8 a 40.53,40.53 0 0 0 0.207,4.246 q 0.456,4.315 1.916,7.05 a 11.401,11.401 0 0 0 0.227,0.404 q 2.199,3.742 7.679,3.984 a 17.534,17.534 0 0 0 0.771,0.016 9.005,9.005 0 0 0 3.4,-0.615 q 2.15,-0.868 3.6,-2.962 a 10.741,10.741 0 0 0 0.4,-0.623 14.888,14.888 0 0 0 1.474,-3.509 q 0.994,-3.454 1.025,-8.372 A 50.471,50.471 0 0 0 1120.3,48.5 q 0,-7.9 -2.45,-11.95 a 7.957,7.957 0 0 0 -5.724,-3.895 11.513,11.513 0 0 0 -1.926,-0.155 q -3.8,0 -6.15,1.6 a 8.129,8.129 0 0 0 -2.548,2.853 11.353,11.353 0 0 0 -0.852,1.997 18.675,18.675 0 0 0 -0.63,2.65 q -0.42,2.51 -0.42,5.8 z"
       id="21-2" />
    <path
       d="m 1193.2,39.7 v 36.4 h -10.5 l -2.9,-7.4 h -0.4 q -2.3,2.9 -4.75,4.8 -2.45,1.9 -5.65,2.75 a 22.872,22.872 0 0 1 -2.831,0.551 q -1.399,0.187 -2.99,0.257 a 44.919,44.919 0 0 1 -1.979,0.042 21.343,21.343 0 0 1 -4.951,-0.553 17.627,17.627 0 0 1 -3.649,-1.297 q -3.8,-1.85 -6,-5.65 a 15.365,15.365 0 0 1 -1.641,-4.262 Q 1144.4,62.923 1144.4,60 a 18.844,18.844 0 0 1 0.716,-5.348 13.657,13.657 0 0 1 5.484,-7.552 q 6.077,-4.215 18.016,-4.778 A 73.87,73.87 0 0 1 1169.1,42.3 l 9.1,-0.3 v -1.7 a 17.1,17.1 0 0 0 -0.155,-2.394 q -0.386,-2.721 -1.734,-4.153 A 4.786,4.786 0 0 0 1176,33.45 7.226,7.226 0 0 0 1173.253,31.958 Q 1171.738,31.5 1169.8,31.5 a 24.881,24.881 0 0 0 -5.783,0.704 29.241,29.241 0 0 0 -1.817,0.496 q -3.9,1.2 -7.7,2.9 l -4.4,-10.3 q 4.3,-2.2 9.85,-3.5 a 49,49 0 0 1 7.299,-1.113 61.283,61.283 0 0 1 4.851,-0.187 q 7.036,0 11.785,2.263 a 16.325,16.325 0 0 1 3.915,2.587 q 4.989,4.481 5.369,12.93 a 31.616,31.616 0 0 1 0.031,1.42 z m -15,11.1 -5.7,0.3 q -5.571,0.157 -8.495,1.484 a 7.499,7.499 0 0 0 -1.405,0.816 6.768,6.768 0 0 0 -2.755,4.963 9.497,9.497 0 0 0 -0.045,0.937 9.96,9.96 0 0 0 0.172,1.915 q 0.407,2.075 1.778,3.235 1.902,1.61 4.994,1.649 a 12.235,12.235 0 0 0 0.156,10e-4 13.58,13.58 0 0 0 4.016,-0.57 11.141,11.141 0 0 0 4.034,-2.23 9.088,9.088 0 0 0 2.978,-5.194 13.741,13.741 0 0 0 0.272,-2.806 z"
       id="22-3" />
    <path
       d="m 1222.7,0.1 v 76 h -15.1 v -76 z"
       id="23-9" />
    <path
       d="m 1325.3,76.1 h -16.5 l -5.5,-16.8 h -25.2 l -5.5,16.8 h -16.5 l 25.1,-71.7 h 18.8 z m -25.5,-29.6 -5,-15.5 q -0.306,-1.148 -0.876,-3.176 A 673.256,673.256 0 0 0 1293.55,26.5 q -0.85,-3 -1.65,-6.15 -0.716,-2.817 -1.191,-4.715 A 765.765,765.765 0 0 1 1290.6,15.2 q -0.344,1.977 -0.946,4.47 a 106.88,106.88 0 0 1 -0.204,0.83 l -1.45,5.8 q -0.699,2.798 -1.199,4.698 A 20.389,20.389 0 0 1 1286.8,31 l -5.1,15.5 z"
       id="25-9" />
    <path
       d="m 1361,67.5 v 8.6 h -32.5 v -8.6 l 8.7,-4 V 17.3 l -8.7,-4 V 4.7 h 32.5 v 8.6 l -8.7,4 v 46.2 z"
       id="26" />
    <path
       d="m 1430.4,63.5 v 11.1 a 25.053,25.053 0 0 1 -2.14,0.772 q -1.064,0.333 -2.286,0.632 a 49.379,49.379 0 0 1 -1.524,0.346 34.486,34.486 0 0 1 -4.63,0.64 43.067,43.067 0 0 1 -3.12,0.11 q -4.9,0 -8.75,-1.6 a 12.178,12.178 0 0 1 -5.551,-4.656 15.446,15.446 0 0 1 -0.549,-0.894 Q 1399.6,66 1399.6,59 V 32.7 h -7.1 v -6.3 l 8.2,-5 4.3,-11.5 h 9.5 v 11.6 h 15.3 v 11.2 h -15.3 V 59 a 8.499,8.499 0 0 0 0.176,1.786 q 0.387,1.799 1.624,2.864 a 6.234,6.234 0 0 0 2.817,1.363 8.992,8.992 0 0 0 1.883,0.187 22.693,22.693 0 0 0 4.439,-0.425 20.957,20.957 0 0 0 0.361,-0.075 q 2.3,-0.5 4.6,-1.2 z"
       id="28-7" />
    <path
       d="m 1486.4,39.7 v 36.4 h -10.5 l -2.9,-7.4 h -0.4 q -2.3,2.9 -4.75,4.8 -2.45,1.9 -5.65,2.75 a 22.872,22.872 0 0 1 -2.831,0.551 q -1.399,0.187 -2.99,0.257 a 44.919,44.919 0 0 1 -1.979,0.042 21.343,21.343 0 0 1 -4.951,-0.553 17.627,17.627 0 0 1 -3.649,-1.297 q -3.8,-1.85 -6,-5.65 a 15.365,15.365 0 0 1 -1.641,-4.262 Q 1437.6,62.923 1437.6,60 a 18.844,18.844 0 0 1 0.716,-5.348 13.657,13.657 0 0 1 5.484,-7.552 q 6.077,-4.215 18.016,-4.778 A 73.87,73.87 0 0 1 1462.3,42.3 l 9.1,-0.3 v -1.7 a 17.1,17.1 0 0 0 -0.155,-2.394 q -0.386,-2.721 -1.734,-4.153 a 4.786,4.786 0 0 0 -0.311,-0.303 7.226,7.226 0 0 0 -2.747,-1.492 Q 1464.938,31.5 1463,31.5 a 24.881,24.881 0 0 0 -5.783,0.704 29.241,29.241 0 0 0 -1.817,0.496 q -3.9,1.2 -7.7,2.9 l -4.4,-10.3 q 4.3,-2.2 9.85,-3.5 a 49,49 0 0 1 7.299,-1.113 61.283,61.283 0 0 1 4.851,-0.187 q 7.036,0 11.785,2.263 A 16.325,16.325 0 0 1 1481,25.35 q 4.989,4.481 5.369,12.93 a 31.616,31.616 0 0 1 0.031,1.42 z m -15,11.1 -5.7,0.3 q -5.571,0.157 -8.495,1.484 a 7.499,7.499 0 0 0 -1.405,0.816 6.768,6.768 0 0 0 -2.755,4.963 9.497,9.497 0 0 0 -0.045,0.937 9.96,9.96 0 0 0 0.172,1.915 q 0.407,2.075 1.778,3.235 1.902,1.61 4.994,1.649 a 12.235,12.235 0 0 0 0.156,10e-4 13.58,13.58 0 0 0 4.016,-0.57 11.141,11.141 0 0 0 4.034,-2.23 9.088,9.088 0 0 0 2.978,-5.194 13.741,13.741 0 0 0 0.272,-2.806 z"
       id="29-0" />
    <path
       d="m 1515.9,0.1 v 76 h -15.1 v -76 z"
       id="30-3" />
    <path
       d="m 1578.4,45.3 v 7.3 h -35.1 a 17.921,17.921 0 0 0 0.583,4.114 12.24,12.24 0 0 0 3.217,5.636 q 3.255,3.211 9.046,3.518 a 23.672,23.672 0 0 0 1.254,0.032 q 5.1,0 9.3,-1 4.2,-1 8.6,-3 v 11.3 q -4,2 -8.45,2.95 a 37.822,37.822 0 0 1 -3.64,0.579 q -1.95,0.221 -4.197,0.31 A 80.806,80.806 0 0 1 1555.8,77.1 q -8.1,0 -14.35,-3 -6.25,-3 -9.85,-9.25 Q 1528,58.6 1528,49.2 a 46.921,46.921 0 0 1 0.457,-6.743 q 0.762,-5.238 2.793,-9.207 3.25,-6.35 9.1,-9.55 5.85,-3.2 13.55,-3.2 a 34.049,34.049 0 0 1 6.248,0.546 24.62,24.62 0 0 1 6.852,2.304 q 5.5,2.85 8.45,8.4 2.95,5.55 2.95,13.55 z m -34.7,-2.8 h 20.6 a 16.805,16.805 0 0 0 -0.242,-2.918 12.53,12.53 0 0 0 -0.858,-2.882 q -1.1,-2.5 -3.35,-4 a 8.699,8.699 0 0 0 -3.132,-1.271 12.16,12.16 0 0 0 -2.418,-0.229 11.563,11.563 0 0 0 -3.376,0.471 9.148,9.148 0 0 0 -3.924,2.379 10.234,10.234 0 0 0 -2.146,3.341 q -0.586,1.429 -0.9,3.183 A 22.083,22.083 0 0 0 1543.7,42.5 Z"
       id="31-9" />
    <path
       d="m 1640.9,40.5 v 35.6 h -15 V 44.3 a 26.127,26.127 0 0 0 -0.17,-3.085 q -0.435,-3.644 -1.98,-5.765 a 6.915,6.915 0 0 0 -4.245,-2.703 11.04,11.04 0 0 0 -2.405,-0.247 15.372,15.372 0 0 0 -3.394,0.348 q -4.076,0.924 -5.856,4.302 -2.45,4.65 -2.45,13.35 v 25.6 h -15.1 V 21.5 h 11.6 l 2.1,7.3 h 0.6 q 1.8,-2.7 4.35,-4.55 2.55,-1.85 5.7,-2.8 a 22.412,22.412 0 0 1 4.702,-0.866 27.024,27.024 0 0 1 2.148,-0.084 27.925,27.925 0 0 1 5.738,0.556 q 3.708,0.778 6.534,2.649 a 16.241,16.241 0 0 1 1.928,1.495 14.082,14.082 0 0 1 3.689,5.587 q 0.874,2.312 1.242,5.197 a 35.707,35.707 0 0 1 0.269,4.516 z"
       id="32-8" />
    <path
       d="m 1688.2,63.5 v 11.1 a 25.053,25.053 0 0 1 -2.14,0.772 q -1.064,0.333 -2.286,0.632 a 49.379,49.379 0 0 1 -1.524,0.346 34.486,34.486 0 0 1 -4.63,0.64 43.067,43.067 0 0 1 -3.12,0.11 q -4.9,0 -8.75,-1.6 a 12.178,12.178 0 0 1 -5.551,-4.656 15.446,15.446 0 0 1 -0.549,-0.894 Q 1657.4,66 1657.4,59 V 32.7 h -7.1 v -6.3 l 8.2,-5 4.3,-11.5 h 9.5 v 11.6 h 15.3 v 11.2 h -15.3 V 59 a 8.499,8.499 0 0 0 0.176,1.786 q 0.387,1.799 1.624,2.864 a 6.234,6.234 0 0 0 2.817,1.363 8.992,8.992 0 0 0 1.883,0.187 22.693,22.693 0 0 0 4.439,-0.425 20.957,20.957 0 0 0 0.361,-0.075 q 2.3,-0.5 4.6,-1.2 z"
       id="33-6" />
  </g>
</svg>
